#!OML:ASF E:\Steps\Project 1\Capture day 1\Session 2\Subject.ASF
:FULLY-SPECIFIED
:DEGREES
176
root 14.5447 18.4616 19.6677 -160.844 -6.44871 162.978
lowerback -21.031 -0.868218 1.01749
upperback 1.60296 -1.45411 -0.192683
thorax 13.6626 -0.606028 -1.27535
lowerneck -0.609075 5.61106 -0.178826
upperneck 20.3911 6.78983 -2.05402
head 6.35053 2.60754 -0.300451
rclavicle 1.19271e-015 -8.26944e-014
rhumerus -32.8983 -9.71778 -66.7829
rradius 46.6453
rwrist -6.37151
rhand -6.58935 -56.6247
rfingers 7.12502
rthumb 19.2657 274.31
lclavicle 1.19271e-015 -8.26944e-014
lhumerus -36.3773 6.28345 74.9071
lradius 27.931
lwrist -3.01324
lhand -17.9794 -14.5106
lfingers 7.12502
lthumb 8.29024 15.3067
rfemur -26.8176 4.33762 -1.7421
rtibia 51.5203
rfoot -46.4776 -15.9027
rtoes -36.1991
lfemur -33.8264 -9.45304 0.592595
ltibia 12.2818
lfoot 15.1269 20.0116
ltoes -12.3703
177
root 14.4672 18.4554 19.6202 -161.526 -6.53244 162.953
lowerback -20.5192 -0.897548 1.26939
upperback 1.83723 -1.54444 -0.137272
thorax 13.6307 -0.624705 -1.37536
lowerneck -0.727319 5.44415 -0.0687192
upperneck 20.2223 6.61864 -2.30968
head 6.32759 2.52448 -0.406492
rclavicle -5.96354e-015 -2.8625e-014
rhumerus -32.679 -9.46503 -66.696
rradius 46.8152
rwrist -6.5684
rhand -6.53468 -57.3733
rfingers 7.12502
rthumb 19.3183 273.566
lclavicle -5.96354e-015 -2.8625e-014
lhumerus -36.5477 6.42952 74.7122
lradius 27.9755
lwrist -2.90213
lhand -17.613 -14.5481
lfingers 7.12502
lthumb 8.64386 15.255
rfemur -25.6837 4.55235 -1.91689
rtibia 51.3384
rfoot -46.4719 -16.6279
rtoes -37.9771
lfemur -32.9127 -10.0085 0.521384
ltibia 11.9118
lfoot 14.9247 20.3754
ltoes -11.9774
178
root 14.3858 18.4298 19.5921 -161.388 -6.37834 162.926
lowerback -20.6214 -0.813713 1.46251
upperback 1.825 -1.49088 -0.0912018
thorax 13.6745 -0.587868 -1.41912
lowerneck -0.78732 5.49973 -0.154069
upperneck 20.0486 6.72015 -2.26105
head 6.27919 2.58615 -0.369955
rclavicle -4.77083e-015 2.8625e-014
rhumerus -32.4192 -9.32355 -66.5648
rradius 46.9757
rwrist -6.56742
rhand -6.74 -57.7958
rfingers 7.12502
rthumb 19.1209 273.124
lclavicle -4.77083e-015 2.8625e-014
lhumerus -36.5827 6.50479 74.6058
lradius 27.9196
lwrist -2.91095
lhand -17.5795 -14.2434
lfingers 7.12502
lthumb 8.6761 15.5583
rfemur -25.6492 4.41794 -2.33949
rtibia 51.2117
rfoot -46.2888 -16.818
rtoes -39.0324
lfemur -33.013 -9.88879 0.535373
ltibia 11.8611
lfoot 15.3696 20.4722
ltoes -12.4646
179
root 14.2975 18.4024 19.5562 -161.251 -6.08632 162.82
lowerback -20.7291 -0.712655 1.54828
upperback 1.77092 -1.38859 -0.0517493
thorax 13.6766 -0.538324 -1.39308
lowerneck -0.750536 5.63237 -0.291605
upperneck 20.0949 6.90302 -2.21903
head 6.28371 2.666 -0.324489
rclavicle 1.98785e-015 -6.04305e-014
rhumerus -32.2696 -9.16269 -66.3505
rradius 47.023
rwrist -6.63799
rhand -7.18066 -55.3036
rfingers 7.12502
rthumb 18.6971 275.575
lclavicle 1.98785e-015 -6.04305e-014
lhumerus -36.7996 6.59849 74.5261
lradius 27.889
lwrist -3.01326
lhand -17.5717 -14.2494
lfingers 7.12502
lthumb 8.68367 15.552
rfemur -25.8646 4.47689 -2.90066
rtibia 51.6869
rfoot -46.711 -16.6746
rtoes -39.1327
lfemur -32.9564 -9.7691 0.404014
ltibia 11.6932
lfoot 15.801 20.6817
ltoes -12.2296
180
root 14.2122 18.3833 19.5203 -161.327 -5.98148 162.671
lowerback -20.6198 -0.74224 1.57859
upperback 1.78108 -1.43924 -0.000451012
thorax 13.6237 -0.562075 -1.36614
lowerneck -0.712266 5.66403 -0.273161
upperneck 20.1429 6.96732 -2.39951
head 6.30077 2.67992 -0.381805
rclavicle -2.62396e-014 3.18055e-015
rhumerus -32.1224 -8.87565 -66.2183
rradius 47.3274
rwrist -6.66145
rhand -6.51351 -54.8699
rfingers 7.12502
rthumb 19.3387 276.072
lclavicle -2.62396e-014 3.18055e-015
lhumerus -37.1002 6.90098 74.3048
lradius 27.8722
lwrist -3.16106
lhand -17.295 -14.4624
lfingers 7.12502
lthumb 8.95072 15.3277
rfemur -25.5061 4.54082 -3.43204
rtibia 51.5304
rfoot -46.9133 -16.6664
rtoes -39.5063
lfemur -32.7411 -9.89181 0.224623
ltibia 11.5333
lfoot 15.9821 20.7405
ltoes -12.2834
181
root 14.1183 18.3638 19.4849 -161.361 -5.93487 162.491
lowerback -20.5451 -0.776376 1.74302
upperback 1.76324 -1.51998 -0.0312081
thorax 13.5516 -0.586455 -1.51821
lowerneck -0.725999 5.64956 -0.125299
upperneck 20.0378 6.98579 -2.62989
head 6.28379 2.68861 -0.477637
rclavicle -2.38542e-015 -9.22361e-014
rhumerus -31.999 -8.53557 -66.1786
rradius 47.614
rwrist -6.42192
rhand -5.19255 -59.0536
rfingers 7.12502
rthumb 20.6084 272.02
lclavicle -2.38542e-015 -9.22361e-014
lhumerus -37.4618 7.12922 73.9862
lradius 27.8651
lwrist -3.30304
lhand -17.221 -14.4999
lfingers 7.12502
lthumb 9.0221 15.2872
rfemur -25.1464 4.3029 -4.0648
rtibia 51.3527
rfoot -46.9065 -16.6914
rtoes -40.3261
lfemur -32.6696 -10.3049 0.0867192
ltibia 11.4666
lfoot 15.9878 20.8757
ltoes -12.2878
182
root 14.0228 18.3379 19.4519 -161.299 -5.67676 162.386
lowerback -20.4861 -0.67975 1.91916
upperback 1.68375 -1.43171 -0.0687545
thorax 13.4226 -0.535297 -1.63102
lowerneck -0.735748 5.63688 -0.0513795
upperneck 20.0819 6.96373 -2.64248
head 6.30232 2.67994 -0.49443
rclavicle -6.36111e-015 -2.22639e-014
rhumerus -31.8588 -8.35688 -66.0619
rradius 47.4002
rwrist -6.29376
rhand -5.41501 -59.8739
rfingers 7.12502
rthumb 20.3946 271.177
lclavicle -6.36111e-015 -2.22639e-014
lhumerus -37.8963 7.00223 73.8102
lradius 27.9762
lwrist -3.18932
lhand -17.4215 -14.3785
lfingers 7.12502
lthumb 8.82863 15.4169
rfemur -25.1227 4.09517 -4.66656
rtibia 51.5154
rfoot -46.9794 -16.7842
rtoes -41.3238
lfemur -32.6071 -10.2374 -0.113139
ltibia 11.3951
lfoot 16.3947 20.7206
ltoes -13.1076
183
root 13.9178 18.3068 19.416 -161.035 -5.1248 162.52
lowerback -20.7359 -0.348755 2.34749
upperback 1.5909 -1.11156 -0.0797604
thorax 13.4654 -0.359757 -1.79215
lowerneck -0.67705 5.61471 -0.0369161
upperneck 20.3712 6.88099 -2.51197
head 6.37909 2.63153 -0.460978
rclavicle 4.77083e-015 2.22639e-014
rhumerus -31.7924 -8.45621 -65.8108
rradius 47.3079
rwrist -6.25983
rhand -5.71449 -58.7113
rfingers 7.12502
rthumb 20.1068 272.309
lclavicle 4.77083e-015 2.22639e-014
lhumerus -38.242 6.61586 73.8176
lradius 28.1773
lwrist -2.79634
lhand -17.5197 -13.8629
lfingers 7.12502
lthumb 8.73384 15.9364
rfemur -25.5241 4.14619 -5.21606
rtibia 51.6111
rfoot -46.9941 -16.594
rtoes -41.9454
lfemur -32.6864 -10.1127 0.0535736
ltibia 11.3237
lfoot 16.6937 20.9866
ltoes -13.4625
184
root 13.8347 18.2896 19.3844 -161.291 -5.26031 162.47
lowerback -20.3389 -0.396058 2.34486
upperback 1.65941 -1.17226 0.0327122
thorax 13.3137 -0.393048 -1.67553
lowerneck -0.698478 5.54017 0.00394033
upperneck 20.4741 6.7783 -2.57199
head 6.41773 2.57352 -0.49172
rclavicle 0 5.08889e-014
rhumerus -31.7322 -8.48091 -65.5105
rradius 47.4623
rwrist -6.45168
rhand -5.84535 -54.4672
rfingers 7.12502
rthumb 19.981 276.54
lclavicle 0 5.08889e-014
lhumerus -38.4838 6.39401 73.8828
lradius 28.2868
lwrist -2.46862
lhand -17.6193 -12.7686
lfingers 7.12502
lthumb 8.63777 17.0346
rfemur -24.8084 4.10688 -5.49348
rtibia 51.3596
rfoot -46.9735 -16.7252
rtoes -42.5762
lfemur -32.4461 -10.1005 -0.152632
ltibia 11.3351
lfoot 17.4626 20.4326
ltoes -14.1916
